<?xml version="1.0" encoding="UTF-8"?>
<svg xmlns="http://www.w3.org/2000/svg" viewBox="0 0 17.62 16.58">
  <defs>
    <style>
      .cls-1 {
        fill: #296637;
      }
    </style>
  </defs>
  <path class="cls-1" d="M8.81,12.52c-2.42,0-4.44-1.5-4.44-4.19,0-1.5.48-2.46,1.23-3.13.75-.67,1.75-1.14,3.21-1.14s2.46.43,3.21,1.1c.75.67,1.23,1.66,1.23,3.17,0,2.18-1.48,4.19-4.44,4.19ZM8.81,11.06c.86,0,1.49-.45,1.9-.9.4-.45.6-.9.6-1.83,0-1.03-.31-1.66-.71-2.08-.4-.42-.92-.73-1.79-.73s-1.38.34-1.79.76c-.4.42-.71,1.02-.71,2.04,0,.93.4,1.57.81,2.02.4.45.83.71,1.69.71Z"/>
  <path class="cls-1" d="M15.86,1.53C14.35.18,11.58,0,8.81,0S3.39.19,1.85,1.55C.21,3,0,5.97,0,8.39s.2,5.23,1.78,6.71c1.46,1.37,3.94,1.48,7.03,1.48,2.72,0,5.54,0,7.06-1.43,1.54-1.45,1.75-4.23,1.75-6.76,0-3.19-.3-5.57-1.76-6.86ZM9.22,14.66h-.51c-2.33.04-4.54,0-5.54-.94-1.04-.97-1.18-3.24-1.18-5.33s.14-4.48,1.21-5.43c1.09-.97,3.47-1.05,5.62-1.05s4.64.08,5.71,1.03c1.03.91,1.11,3.19,1.11,5.45,0,2.13-.14,4.43-1.15,5.38-.95.89-3.05.9-5.26.89Z"/>
  <path class="cls-1" d="M14.25,4.18c0,.53-.27.8-.8.8s-.8-.27-.8-.8c0-.29.07-.49.2-.62.14-.13.34-.19.6-.19s.46.06.6.19c.14.13.2.33.2.62Z"/>
</svg>