<?xml version="1.0" encoding="UTF-8"?>
<svg xmlns="http://www.w3.org/2000/svg" viewBox="0 0 250.48 369.19">
  <defs>
    <style>
      .cls-1 {
        fill: #134721;
      }
    </style>
  </defs>
  <path class="cls-1" d="M120.54,191.03C42.36,114.1,5.8,48.66.27,0h57.23c-32.24,71.4,60.57,187.94,63.04,191.03Z"/>
  <path class="cls-1" d="M250.48,0v32.09c-42.24,7.63-41.62,62.63-41.62,62.63-3.1-7.15-.15-55.89-12.38-94.71h54Z"/>
  <path class="cls-1" d="M250.48,183.2v27.46c-39.73,3.34-42.11,45.9-42.11,45.9-4.81-55.15-69.14-57.44-77.67-57.49,78.56,0,77.5-64.67,77.5-64.67,3.11,34.99,10.36,49.26,42.28,48.79Z"/>
  <path class="cls-1" d="M81.3,369.19H18.21C1.84,276.23,118.2,205.45,118.2,205.45c-63.74,75.71-66.8,130.88-36.9,163.74Z"/>
</svg>